# xmcd
# 
# Track frame offsets:
#     150
#     14290
#     28192
#     41525
#     60645
#     74230
#     98805
#     111160
#     125650
#     142835
#     156765
#     174025
#     197357
#     207240
#     222010
#     239290
# 
# Disc length: 3377
# 
# Revision: 4
# Processed by: cddbd v1.5.2PL0 Copyright (c) Steve Scherf et al.
# Submitted via: BonkEnc v1.0.6
# 
DISCID=dc0d2f10
DTITLE=Taiguara - Meus Momentos
DYEAR=1994
DGENRE=MPB
TTITLE0=Gente Humilde
TTITLE1=Hoje
TTITLE2=Viagem
TTITLE3=Universo No Teu Corpo
TTITLE4=Modinha
TTITLE5=Helena, Helena, Helena
TTITLE6=Preludio Nº2 (Paz Do Meu Amor)
TTITLE7=Teu Sonho Não Acabou
TTITLE8=O Velho E O Novo 
TTITLE9=Que As Crianças Cantem Livres 
TTITLE10=Berço De Marcela
TTITLE11=Momento Do Amor
TTITLE12=Castigo
TTITLE13=Piano E Viola
TTITLE14=Carne E Osso
TTITLE15=Amanda
EXTD=YEAR: 1994
EXTT0=
EXTT1=
EXTT2=
EXTT3=
EXTT4=
EXTT5=
EXTT6=
EXTT7=
EXTT8=
EXTT9=
EXTT10=
EXTT11=
EXTT12=
EXTT13=
EXTT14=
EXTT15=
PLAYORDER=
